Coordinates
version=1
nRows=16
nColumns=40
inDegrees=yes

Units are S.I. units (second, meters, Newtons, ...)
Angles are in degrees.

endheader
time	pelvis_tilt	pelvis_list	pelvis_rotation	pelvis_tx	pelvis_ty	pelvis_tz	hip_flexion_r	hip_adduction_r	hip_rotation_r	knee_angle_r	knee_angle_r_beta	ankle_angle_r	subtalar_angle_r	mtp_angle_r	hip_flexion_l	hip_adduction_l	hip_rotation_l	knee_angle_l	knee_angle_l_beta	ankle_angle_l	subtalar_angle_l	mtp_angle_l	lumbar_extension	lumbar_bending	lumbar_rotation	arm_flex_r	arm_add_r	arm_rot_r	elbow_flex_r	pro_sup_r	wrist_flex_r	wrist_dev_r	arm_flex_l	arm_add_l	arm_rot_l	elbow_flex_l	pro_sup_l	wrist_flex_l	wrist_dev_l
     25.95750000	     -4.87426539	     -2.75721914	     -0.83429620	      1.02003421	      0.91018384	      0.40350072	     12.68746901	     -7.75946587	     -5.13754705	     50.25292106	     50.25292106	      4.03184276	    -15.46211591	    -20.53147759	     20.59374046	      0.77083146	     -0.08816402	     34.38010018	     34.38010018	     21.73890678	    -18.27433304	     11.63296577	     -9.48765603	      6.57256708	      3.10151506	     20.29958921	    -14.07537936	    -12.36214385	     28.18495808	     47.13264273	      0.00000000	      0.00000000	     12.67887464	    -11.88931127	     20.08736744	     38.58501662	     44.77592856	      0.00000000	      0.00000000
     25.98071429	     -4.83973190	     -2.66969982	     -1.30296489	      1.01910822	      0.90948981	      0.40224096	     15.16104057	     -7.95243057	     -4.07177997	     54.27671739	     54.27671739	      2.23558629	    -16.76668643	    -18.78065014	     20.28676255	      0.85628404	     -0.49524923	     34.46187747	     34.46187747	     22.07319424	    -18.32125170	     11.45370488	     -9.67501409	      6.79751807	      3.15903452	     16.55962709	    -14.21684719	    -12.62689758	     26.32601691	     47.19149204	      0.00000000	      0.00000000	     14.73486009	    -12.22815762	     19.43083005	     40.17797518	     44.89424215	      0.00000000	      0.00000000
     26.00392857	     -4.78652334	     -2.64247381	     -1.85069182	      1.01794272	      0.90955734	      0.40169069	     17.74107449	     -7.84113503	     -2.96115214	     58.10753443	     58.10753443	      2.37420702	    -16.78224442	    -11.88793976	     19.78912103	      0.79418207	     -1.00852188	     34.20268978	     34.20268978	     22.24310854	    -18.23468397	     11.13230716	    -10.02481188	      7.01444599	      2.88427318	     13.09752011	    -13.98558034	    -13.47191955	     24.91800867	     47.26752589	      0.00000000	      0.00000000	     16.31317795	    -12.98317518	     18.23510951	     43.07429103	     45.09833162	      0.00000000	      0.00000000
     26.02714286	     -4.92353725	     -2.60912070	     -2.48567421	      1.01652708	      0.91009997	      0.40173846	     20.43461225	     -7.71897886	     -2.13092556	     61.08383631	     61.08383631	      2.59514714	    -16.67675541	     -6.08035385	     19.33928092	      0.68674513	     -1.58867904	     33.62164238	     33.62164238	     22.17330621	    -18.20838374	     10.65082009	    -10.18812601	      7.17899796	      2.57458541	      9.84228779	    -13.62972681	    -14.23725089	     23.58819457	     47.33278965	      0.00000000	      0.00000000	     17.95696662	    -13.82652473	     16.83813992	     45.63726353	     45.34182583	      0.00000000	      0.00000000
     26.05035714	     -5.05094123	     -2.55623705	     -3.22811321	      1.01497584	      0.91141552	      0.40237106	     22.84220006	     -7.56908878	     -1.49263303	     62.78410832	     62.78410832	      1.65936829	    -17.47070970	     -5.25981555	     18.68906067	      0.56421028	     -2.25008606	     32.67526324	     32.67526324	     22.14918951	    -18.08411923	     10.74027600	    -10.33688181	      7.25776328	      2.38666368	      6.80463110	    -13.32898514	    -14.29022563	     22.32795546	     47.36064774	      0.00000000	      0.00000000	     20.05812579	    -14.65912339	     16.10762018	     47.08091949	     45.45060748	      0.00000000	      0.00000000
     26.07357143	     -5.22699964	     -2.66580863	     -4.09007911	      1.01332115	      0.91337825	      0.40382872	     25.10874282	     -7.13821768	     -1.07446442	     63.45650982	     63.45650982	      1.71763685	    -17.75666079	     -3.82785471	     17.93176498	      0.18543845	     -3.03806086	     31.45167193	     31.45167193	     21.84718158	    -17.95284940	     10.64421666	    -10.61393030	      7.44731019	      2.80707099	      3.52320785	    -13.11152739	    -14.41380950	     21.35232334	     47.37930614	      0.00000000	      0.00000000	     22.15827300	    -15.39352987	     14.99448167	     49.68391480	     45.60955006	      0.00000000	      0.00000000
     26.09678571	     -5.48488647	     -2.85168308	     -5.01142107	      1.01155897	      0.91570984	      0.40586101	     27.23611692	     -6.51082146	     -0.76796176	     63.04275994	     63.04275994	      2.53941454	    -17.59150201	     -1.92381855	     17.11830203	     -0.32133198	     -3.89075883	     29.96223185	     29.96223185	     21.12070779	    -17.78253239	      9.43490224	    -10.84366158	      7.68096094	      2.29699085	      0.66836191	    -12.60537125	    -14.71899988	     22.16719191	     47.32801444	      0.00000000	      0.00000000	     23.09695704	    -16.76237218	     12.77960154	     53.72355786	     45.89106104	      0.00000000	      0.00000000
     26.12000000	     -5.83852878	     -3.00221479	     -6.05608053	      1.00975552	      0.91833041	      0.40853958	     29.08158136	     -5.84030245	     -0.59293944	     61.26826591	     61.26826591	      3.20039157	    -17.37503280	     -2.38435217	     16.27351054	     -0.80586694	     -4.80887948	     28.26964620	     28.26964620	     20.75757773	    -17.49543593	      9.69386368	    -10.86676742	      7.83348986	      2.32121507	     -1.61984834	    -12.22437626	    -14.69591037	     21.42193008	     47.33260126	      0.00000000	      0.00000000	     25.10099885	    -17.72749218	     11.86502643	     55.16602447	     46.00613352	      0.00000000	      0.00000000
     26.14321429	     -6.17717426	     -3.24311618	     -7.18842093	      1.00801207	      0.92090080	      0.41180444	     30.31082572	     -5.10712454	     -0.70269210	     57.87235515	     57.87235515	      2.59146019	    -17.28498596	     -8.03288097	     15.36136567	     -1.42580319	     -5.84289890	     26.51887023	     26.51887023	     19.73208861	    -17.45101216	      8.29063365	    -11.11173955	      8.00176378	      2.16217922	     -4.08565959	    -11.84422521	    -14.71369006	     22.80847342	     47.22802458	      0.00000000	      0.00000000	     25.97836163	    -18.82941076	      8.84819207	     59.37788746	     46.35108116	      0.00000000	      0.00000000
     26.16642857	     -6.59482616	     -3.48014155	     -8.35874161	      1.00634359	      0.92329955	      0.41555928	     31.12428152	     -4.24298504	     -0.84500622	     53.23629193	     53.23629193	      2.25355903	    -16.55472165	    -12.98177567	     14.52149308	     -2.04292887	     -6.85476914	     24.81971886	     24.81971886	     19.10342194	    -17.30032767	      7.92857677	    -11.15407224	      8.15570029	      2.20612480	     -5.90257942	    -11.55678668	    -14.28545100	     23.05118618	     47.14238034	      0.00000000	      0.00000000	     27.44881533	    -19.67446890	      6.83939055	     61.73781945	     46.58794086	      0.00000000	      0.00000000
     26.18964286	     -7.02322925	     -3.67547629	     -9.54049521	      1.00485294	      0.92531766	      0.41974953	     31.50189786	     -3.28527650	     -0.93921540	     47.76854295	     47.76854295	      2.88078844	    -14.31162845	    -14.40538428	     13.72496945	     -2.62382044	     -7.88317058	     23.25513559	     23.25513559	     18.69392950	    -17.08887462	      8.03105526	    -11.14859760	      8.23603343	      2.48856389	     -7.41614127	    -11.24432210	    -14.18216767	     23.15403594	     47.10429482	      0.00000000	      0.00000000	     29.13318321	    -20.46284760	      5.58494585	     63.72766053	     46.73663028	      0.00000000	      0.00000000
     26.21285714	     -7.39873842	     -3.90932949	    -10.63584721	      1.00370786	      0.92678419	      0.42420496	     31.21936993	     -2.34053406	     -1.26752468	     41.43427948	     41.43427948	      3.14266063	    -10.89640667	    -15.33298311	     12.96658321	     -3.23589487	     -8.81511856	     21.93554773	     21.93554773	     18.17557949	    -17.01368277	      7.46794012	    -11.17880654	      8.35560125	      2.27455429	     -8.68271206	    -10.96946694	    -14.11819297	     24.49172846	     47.00523845	      0.00000000	      0.00000000	     30.13404778	    -21.30342023	      3.21172797	     66.53224581	     46.98764236	      0.00000000	      0.00000000
     26.23607143	     -7.70108006	     -3.99173677	    -11.66538086	      1.00307431	      0.92762871	      0.42878914	     30.51376145	     -1.59191863	     -1.73882878	     34.93171610	     34.93171610	      3.86292776	     -5.80243548	    -12.77067296	     12.21091438	     -3.66151502	     -9.75036967	     20.81273696	     20.81273696	     17.85359345	    -16.90284271	      6.93226685	    -11.15602458	      8.32698223	      2.27505459	     -9.62844724	    -10.77953931	    -13.88156738	     25.41597927	     46.90923559	      0.00000000	      0.00000000	     31.24213965	    -21.84707840	      1.28704873	     68.86016835	     47.19977557	      0.00000000	      0.00000000
     26.25928571	     -7.81832517	     -3.95104365	    -12.53741297	      1.00306165	      0.92783015	      0.43348250	     29.33187970	     -1.02796550	     -2.31377973	     28.49756640	     28.49756640	      3.73066295	     -0.57491537	    -10.33024655	     11.39648094	     -3.91616242	    -10.61239308	     20.00411979	     20.00411979	     17.85209855	    -16.72770217	      6.68372587	    -11.20411674	      8.11668368	      2.50021899	    -10.26591612	    -10.54218358	    -13.87593147	     25.78630858	     46.87689494	      0.00000000	      0.00000000	     32.77969339	    -22.20426166	      0.30684728	     70.58927705	     47.31728530	      0.00000000	      0.00000000
     26.28250000	     -7.96936279	     -3.85062843	    -13.26413900	      1.00349178	      0.92727507	      0.43827306	     28.47908830	     -0.53655008	     -2.82459376	     23.52084810	     23.52084810	      5.11415179	      4.81642080	     -1.82016690	     10.73345384	     -4.09998402	    -11.30971364	     19.38841734	     19.38841734	     17.55500906	    -16.80444497	      5.45786021	    -11.12736280	      7.94740294	      2.16081884	    -10.79442681	    -10.37526546	    -13.89414031	     27.57826807	     46.75834948	      0.00000000	      0.00000000	     33.39905854	    -22.46211810	     -2.02502698	     73.20175514	     47.55765865	      0.00000000	      0.00000000
     26.30571429	     -7.97096775	     -3.65169626	    -13.83373813	      1.00454232	      0.92634683	      0.44313079	     27.54692850	     -0.20843259	     -3.27518832	     19.38687561	     19.38687561	      5.06801605	      8.87457337	      3.06076038	     10.02053544	     -4.13760001	    -11.89856852	     19.00897664	     19.00897664	     17.63290048	    -16.78785892	      4.77068057	    -11.07484902	      7.64506596	      2.15270166	    -10.96315822	    -10.21248488	    -13.83509512	     28.39711925	     46.69191522	      0.00000000	      0.00000000	     34.47571331	    -22.44299005	     -3.15405553	     74.97161066	     47.69069433	      0.00000000	      0.00000000
